<?xml version="1.0" encoding="UTF-8"?>
<svg id="Layer_2" data-name="Layer 2" xmlns="http://www.w3.org/2000/svg" viewBox="0 0 620.5 624">
  <defs>
    <style>
      .cls-1 {
        fill: #d7682a;
      }

      .cls-2 {
        fill: none;
        stroke: #d7682a;
        stroke-linecap: round;
        stroke-miterlimit: 10;
        stroke-width: 15px;
      }
    </style>
  </defs>
  <g id="Layer_2-2" data-name="Layer 2">
    <path class="cls-1" d="m613.64,17.5h-69.28c-3.79,0-6.86,3.07-6.86,6.86v392.14h-58.33V67.36c0-3.79-3.07-6.86-6.86-6.86h-69.28c-3.79,0-6.86,3.07-6.86,6.86v349.14h-58.33v-223.14c0-3.79-3.07-6.86-6.86-6.86h-69.28c-3.79,0-6.86,3.07-6.86,6.86v223.14h-58.33v-74.14c0-3.79-3.07-6.86-6.86-6.86h-69.28c-3.79,0-6.86,3.07-6.86,6.86v108.33c0,2.66,2.16,4.81,4.81,4.81h497.37c2.66,0,4.81-2.16,4.81-4.81V24.36c0-3.79-3.07-6.86-6.86-6.86Z"/>
    <path class="cls-2" d="m355,616.5c-168.17,0-304.5-136.33-304.5-304.5S186.83,7.5,355,7.5"/>
    <circle class="cls-1" cx="82.5" cy="185.5" r="41.5"/>
    <line class="cls-2" x1="7.5" y1="143.5" x2="154.5" y2="226.5"/>
  </g>
</svg>