<?xml version="1.0" encoding="UTF-8"?>
<svg id="Layer_2" data-name="Layer 2" xmlns="http://www.w3.org/2000/svg" viewBox="0 0 565 544.74">
  <defs>
    <style>
      .cls-1 {
        fill: #d7682a;
      }
    </style>
  </defs>
  <g id="Layer_2-2" data-name="Layer 2">
    <path class="cls-1" d="m543,251c-12.15,0-22,9.85-22,22,0,2.9.57,5.66,1.58,8.2l-43.05,24.6v-113.67c0-2.33-.39-4.62-1.12-6.77l44.46-25.41c4.02,4.33,9.75,7.04,16.13,7.04,12.15,0,22-9.85,22-22s-9.85-22-22-22-22,9.85-22,22c0,3.61.88,7.01,2.42,10.02l-43.73,24.99c-1.74-2.49-4.02-4.62-6.73-6.18l-124.55-71.91,26.2-14.79c2.93,3.58,7.39,5.87,12.38,5.87,8.84,0,16-7.16,16-16s-7.16-16-16-16-16,7.16-16,16c0,1.69.27,3.32.75,4.85l-9.4,5.31.33-.6-104.66-58.06c.64-2.06.98-4.24.98-6.51,0-12.15-9.85-22-22-22s-22,9.85-22,22,9.85,22,22,22c6.65,0,12.61-2.96,16.65-7.62l100.21,55.58-11.47,6.48-60.8-35.1c-6.52-3.76-14.62-3.77-21.14,0l-191.38,110.49c-6.52,3.76-10.57,10.78-10.57,18.31v64.3l-28.27,16.28c-2.77-2.31-6.34-3.7-10.23-3.7-8.84,0-16,7.16-16,16s7.16,16,16,16,16-7.16,16-16c0-1.68-.26-3.29-.74-4.81l23.24-13.38v146.3c0,7.53,4.05,14.54,10.57,18.31l191.38,110.49c3.26,1.88,6.91,2.82,10.57,2.82s7.31-.94,10.57-2.82l191.38-110.49c6.52-3.76,10.57-10.78,10.57-18.31v-96.95l48.06-27.47c3.97,3.9,9.41,6.3,15.41,6.3,12.15,0,22-9.85,22-22s-9.85-22-22-22Zm-92.47,48.12l-62.93-36.69v-23.34c0-3.76-2.01-7.24-5.27-9.12l-75.33-43.49,62.23-35.56-1-1.75,82.3,47.51v102.45Zm-177.33,116.08v-111.19l94.4-49.08v105.77l-94.4,54.5Zm-24.54-34.64l-82.23-45.01v-45.74l82.57,45.2-.34-10.45-82.23-45.01v-24l93.77,50.24v109.06l-93.77-54.14v-14.89l82.57,45.2-.34-10.45Zm-71.72-142.07l90.07-52,89.5,51.67-91.44,47.54-88.13-47.21Zm90.07-147.76l94.22,54.4-63.25,36.15-25.69-14.83c-1.63-.94-3.45-1.41-5.27-1.41s-3.64.47-5.27,1.41l-56.42,32.57-62.62-36.51,124.31-71.77Zm-179.02,106.28c-1.54,0-3.05.16-4.5.46v-.79l50.23-29,62.62,36.51-44.66,25.78c-3.26,1.88-5.27,5.36-5.27,9.12v60.5l-62.93,36.13v-95.18c1.45.3,2.96.46,4.5.46,12.15,0,22-9.85,22-22s-9.85-22-22-22Zm179.02,317.53l-183.52-105.95v-62.48l62.93-36.13v56.2c0,3.76,2.01,7.24,5.27,9.12l110.05,63.54c1.63.94,3.45,1.41,5.27,1.41s3.64-.47,5.27-1.41l34.82-20.1,50.69,29.55c-1.78,3.17-2.79,6.83-2.79,10.72,0,1.53.16,3.03.45,4.47l-88.44,51.06Zm124.62-71.95c-3.89-3.47-9.01-5.58-14.64-5.58-4.94,0-9.5,1.63-13.17,4.38l-47.75-27.84,66.26-38.25c3.26-1.88,5.27-5.36,5.27-9.12v-93.31l62.93,36.69v99.04l-58.9,34Z"/>
  </g>
</svg>