<?xml version="1.0" encoding="UTF-8"?>
<svg id="Layer_2" data-name="Layer 2" xmlns="http://www.w3.org/2000/svg" viewBox="0 0 453 449.25">
  <defs>
    <style>
      .cls-1 {
        fill: #d7682a;
      }

      .cls-2 {
        stroke-width: 19px;
      }

      .cls-2, .cls-3 {
        fill: none;
        stroke: #d7682a;
        stroke-miterlimit: 10;
      }

      .cls-3 {
        stroke-width: 18px;
      }
    </style>
  </defs>
  <g id="Layer_2-2" data-name="Layer 2">
    <rect class="cls-3" x="56" y="52" width="337" height="337" rx="29.93" ry="29.93"/>
    <rect class="cls-3" x="117" y="113" width="215" height="215" rx="2.62" ry="2.62"/>
    <rect class="cls-1" x="162" y="198" width="125" height="97" rx="4.52" ry="4.52"/>
    <g>
      <line class="cls-3" x1="117" y1="140.75" x2="25" y2="140.75"/>
      <circle class="cls-1" cx="16.5" cy="140.75" r="16.5"/>
    </g>
    <line class="cls-3" x1="56" y1="242.75" x2="25" y2="242.75"/>
    <circle class="cls-1" cx="16.5" cy="282.75" r="16.5"/>
    <g>
      <line class="cls-3" x1="336" y1="140.75" x2="428" y2="140.75"/>
      <circle class="cls-1" cx="436.5" cy="140.75" r="16.5"/>
    </g>
    <g>
      <line class="cls-3" x1="224.5" y1="385" x2="224.5" y2="424.25"/>
      <circle class="cls-1" cx="224.5" cy="432.75" r="16.5"/>
    </g>
    <g>
      <line class="cls-3" x1="286.5" y1="58.25" x2="286.5" y2="25"/>
      <circle class="cls-1" cx="286.5" cy="16.5" r="16.5"/>
    </g>
    <path class="cls-2" d="m56,241H23.81c-4.04,0-7.31,3.27-7.31,7.31v33.38"/>
  </g>
</svg>