<?xml version="1.0" encoding="UTF-8"?><svg id="Layer_2" xmlns="http://www.w3.org/2000/svg" viewBox="0 0 702 682"><defs><style>.cls-1{stroke-width:38px;}.cls-1,.cls-2,.cls-3,.cls-4,.cls-5,.cls-6{fill:none;stroke:#d7682a;stroke-miterlimit:10;}.cls-7{fill:#d7682a;}.cls-2{stroke-width:5px;}.cls-3{stroke-width:46px;}.cls-3,.cls-4,.cls-5{stroke-linecap:round;}.cls-4,.cls-6{stroke-width:8px;}.cls-5{stroke-width:70px;}</style></defs><g id="Layer_2-2"><circle class="cls-1" cx="332.5" cy="321.5" r="179.5"/><circle class="cls-4" cx="401.5" cy="252.5" r="47.5"/><circle class="cls-4" cx="401.5" cy="252.5" r="18.5"/><path class="cls-4" d="m327.5,431.5c0,18.78-15.22,34-34,34-9.84,0-18.7-4.18-24.91-10.86-5.64-6.07-9.09-14.2-9.09-23.14,0-18.78,15.22-34,34-34s34,15.22,34,34Z"/><line class="cls-4" x1="354" y1="374.46" x2="268.59" y2="454.64"/><path class="cls-6" d="m455.53,342h-79.37c-1.75,0-3.16,1.42-3.16,3.16v6.37c0,3.57-2.9,6.47-6.47,6.47h-9.37c-1.75,0-3.16,1.42-3.16,3.16v64.37c0,3.57,2.9,6.47,6.47,6.47h95.06c3.57,0,6.47-2.9,6.47-6.47v-77.06c0-3.57-2.9-6.47-6.47-6.47Z"/><line class="cls-4" x1="362" y1="358" x2="195" y2="358"/><line class="cls-4" x1="324.5" y1="243.5" x2="223.5" y2="243.5"/><line class="cls-4" x1="602.5" y1="191.5" x2="501.5" y2="191.5"/><line class="cls-4" x1="626.5" y1="428.5" x2="572.5" y2="428.5"/><line class="cls-3" x1="504.59" y1="484.59" x2="466.41" y2="446.41"/><line class="cls-5" x1="667" y1="647" x2="517.41" y2="497.41"/><line class="cls-4" x1="645.5" y1="363.5" x2="591.5" y2="363.5"/><line class="cls-4" x1="618.5" y1="390.5" x2="618.5" y2="336.5"/><line class="cls-4" x1="532.5" y1="428.5" x2="532.5" y2="262.5"/><line class="cls-4" x1="572.5" y1="428.5" x2="572.5" y2="262.5"/><line class="cls-4" x1="626.5" y1="262.5" x2="515.5" y2="262.5"/><line class="cls-4" x1="299.5" y1="283.5" x2="198.5" y2="283.5"/><line class="cls-4" x1="299.5" y1="308.5" x2="198.5" y2="308.5"/><line class="cls-4" x1="245.5" y1="329.5" x2="184.5" y2="329.5"/><line class="cls-4" x1="396.5" y1="367.5" x2="396.5" y2="408.5"/><line class="cls-4" x1="415" y1="367.5" x2="415" y2="408.5"/><line class="cls-4" x1="433.5" y1="367.5" x2="433.5" y2="408.5"/><path class="cls-7" d="m332.5,665c-88.81,0-172.31-34.59-235.11-97.39C34.59,504.81,0,421.31,0,332.5S34.59,160.19,97.39,97.39C160.19,34.59,243.69,0,332.5,0c54.61,0,108.76,13.53,156.6,39.12,46.32,24.78,91.38,65.14,121.4,108.38l-11.28.15c-29.3-42.2-68.69-77.29-113.89-101.48-46.68-24.98-99.53-38.18-152.83-38.18-86.68,0-168.17,33.75-229.46,95.04C41.75,164.33,8,245.82,8,332.5s33.75,168.17,95.04,229.46c61.29,61.29,142.78,95.04,229.46,95.04,44.12,0,86.89-8.7,127.13-25.86,38.87-16.57,73.71-40.28,103.56-70.46l5.69,5.63c-30.59,30.92-66.29,55.21-106.11,72.19-41.24,17.58-85.07,26.5-130.27,26.5Z"/><rect class="cls-2" x="241.5" y="147.5" width="442" height="416"/></g></svg>