<?xml version="1.0" encoding="UTF-8"?><svg id="Layer_2" xmlns="http://www.w3.org/2000/svg" viewBox="0 0 366 303.19"><defs><style>.cls-1{fill:#d7682a;}</style></defs><g id="Layer_2-2"><path class="cls-1" d="m260.48,150.27l-8.14.12c-1.59-6.57-4.28-12.7-7.87-18.2l5.67-5.85c3.29-3.4,3.21-8.82-.18-12.11l-6.36-6.17c-3.4-3.29-8.82-3.21-12.11.18l-5.66,5.84c-5.35-3.27-11.27-5.69-17.57-7.11v-8.14c0-4.73-3.84-8.57-8.57-8.57h-8.87c-4.73,0-8.57,3.84-8.57,8.57v8.14c-6.6,1.49-12.77,4.09-18.31,7.59l-5.76-5.76c-3.35-3.35-8.77-3.35-12.12,0l-6.27,6.27c-3.35,3.35-3.35,8.77,0,12.12l5.76,5.76c-3.66,5.79-6.33,12.26-7.79,19.18l-8.13.12c-4.73.07-8.51,3.96-8.44,8.69l.13,8.86c.07,4.73,3.96,8.51,8.69,8.44l8.14-.12c1.59,6.57,4.28,12.7,7.87,18.2l-5.67,5.85c-3.29,3.4-3.21,8.82.18,12.11l6.36,6.17c3.4,3.29,8.82,3.21,12.11-.18l5.66-5.84c5.35,3.27,11.27,5.69,17.57,7.11v8.14c0,4.73,3.84,8.57,8.57,8.57h8.87c4.73,0,8.57-3.84,8.57-8.57v-8.14c6.6-1.49,12.77-4.09,18.31-7.59l5.76,5.76c3.35,3.35,8.77,3.35,12.12,0l6.27-6.27c3.35-3.35,3.35-8.77,0-12.12l-5.76-5.76c3.66-5.79,6.33-12.26,7.79-19.18l8.13-.12c4.73-.07,8.51-3.96,8.44-8.69l-.13-8.86c-.07-4.73-3.96-8.51-8.69-8.44Zm-28.77,15.75c0,.2-.03.39-.04.59-.02.39-.05.77-.09,1.16-.02.23-.05.46-.08.69-.04.34-.08.69-.13,1.03-.04.24-.07.49-.11.73-.05.33-.11.65-.17.97-.05.25-.1.49-.15.74-.07.32-.14.63-.22.94-.06.24-.11.48-.18.73-.09.32-.18.64-.27.96-.06.22-.13.44-.19.66-.43,1.36-.94,2.68-1.52,3.97-3.66,8.15-10.22,14.72-18.38,18.38-.63.28-1.28.55-1.93.8-.47.18-.94.34-1.41.5-.06.02-.12.04-.18.06-.44.14-.88.28-1.32.4-.11.03-.22.06-.33.09-.41.11-.82.22-1.23.32-.16.04-.32.07-.48.11-.38.09-.76.17-1.14.24-.21.04-.42.08-.62.11-.34.06-.69.12-1.04.17-.26.04-.53.07-.79.1-.3.04-.61.08-.91.11-.34.03-.69.06-1.04.08-.24.02-.47.04-.71.05-.59.03-1.19.05-1.79.05s-1.2-.02-1.79-.05c-.24-.01-.47-.03-.71-.05-.35-.02-.69-.05-1.04-.08-.31-.03-.61-.07-.91-.11-.27-.03-.53-.06-.79-.1-.35-.05-.69-.11-1.04-.17-.21-.04-.42-.07-.62-.11-.38-.07-.76-.15-1.14-.24-.16-.04-.32-.07-.48-.11-.41-.1-.82-.2-1.23-.32-.11-.03-.22-.06-.33-.09-.44-.13-.88-.26-1.32-.4-.06-.02-.12-.04-.18-.06-.48-.16-.95-.33-1.41-.5-.48-.18-.96-.37-1.43-.58-3.05-1.31-5.88-3.03-8.43-5.09-.03-.03-.07-.05-.1-.08-.38-.31-.75-.62-1.11-.94-.06-.05-.12-.1-.17-.15-.35-.31-.69-.63-1.03-.96-.07-.06-.13-.13-.2-.19-.33-.32-.65-.65-.97-.98-.07-.07-.14-.14-.21-.22-.31-.33-.62-.68-.92-1.02-.07-.08-.13-.15-.2-.23-.3-.35-.59-.71-.88-1.07-.06-.07-.12-.15-.18-.23-.29-.37-.56-.74-.84-1.12-.05-.07-.1-.14-.15-.22-.27-.39-.54-.78-.8-1.18-.04-.07-.08-.13-.13-.2-.26-.41-.52-.82-.76-1.24-.03-.05-.06-.11-.09-.16-.25-.44-.5-.88-.73-1.32-.02-.03-.03-.07-.05-.1-.24-.47-.48-.94-.71-1.42-.29-.63-.57-1.27-.83-1.91-.21-.52-.4-1.05-.59-1.58,0,0,0,0,0,0-.18-.52-.35-1.06-.51-1.59,0-.03-.01-.05-.02-.08-.15-.51-.29-1.03-.42-1.55-.02-.06-.03-.13-.05-.2-.12-.48-.22-.97-.32-1.47-.02-.12-.04-.24-.07-.37-.08-.44-.16-.89-.23-1.33-.03-.2-.05-.4-.08-.6-.05-.38-.1-.76-.14-1.14-.03-.31-.05-.62-.07-.93-.02-.28-.05-.57-.06-.85-.03-.6-.05-1.21-.05-1.82s.02-1.18.04-1.77c0-.2.03-.39.04-.59.02-.39.05-.77.09-1.16.02-.23.05-.46.08-.69.04-.34.08-.69.13-1.03.04-.24.07-.48.11-.73.05-.33.11-.65.17-.97.05-.25.1-.49.15-.74.07-.32.14-.63.22-.94.06-.24.11-.48.18-.73.09-.32.18-.64.27-.96.06-.22.13-.44.19-.66.43-1.36.94-2.68,1.52-3.97,3.66-8.15,10.22-14.72,18.38-18.38.63-.28,1.28-.55,1.93-.8.47-.18.94-.34,1.41-.5.06-.02.12-.04.18-.06.44-.14.88-.28,1.32-.4.11-.03.22-.06.33-.09.41-.11.82-.22,1.23-.32.16-.04.32-.07.48-.11.38-.08.75-.17,1.14-.24.21-.04.42-.08.63-.11.34-.06.69-.12,1.04-.17.26-.04.53-.07.79-.1.3-.04.61-.08.91-.11.34-.03.69-.06,1.04-.08.24-.02.47-.04.71-.05.59-.03,1.19-.05,1.79-.05s1.2.02,1.79.05c.24.01.47.03.71.05.35.02.69.05,1.04.08.31.03.61.07.91.11.27.03.53.06.79.1.35.05.69.11,1.04.17.21.04.42.07.63.11.38.07.76.15,1.14.24.16.04.32.07.48.11.41.1.82.2,1.23.32.11.03.22.06.33.09.44.13.88.26,1.32.4.06.02.12.04.18.06.48.16.95.33,1.41.5.48.18.96.37,1.43.58,3.05,1.31,5.88,3.03,8.44,5.09.03.03.07.05.1.08.38.31.75.62,1.11.94.06.05.12.1.17.15.35.31.69.63,1.03.96.07.06.13.13.2.19.33.32.65.65.97.98.07.07.14.14.2.21.31.33.62.68.92,1.02.07.08.13.15.2.23.3.35.59.71.88,1.07.06.07.12.15.18.23.29.37.56.74.84,1.12.05.07.1.14.15.22.27.39.54.78.8,1.18.04.07.08.13.13.2.26.41.52.82.76,1.24.03.05.06.11.09.16.25.44.5.88.73,1.32.02.03.03.07.05.1.24.47.48.94.71,1.42.29.63.57,1.27.83,1.91.21.52.4,1.05.59,1.58,0,0,0,0,0,0,.18.52.35,1.06.51,1.59,0,.03.01.05.02.08.15.51.29,1.03.42,1.55.02.06.03.13.05.2.12.48.22.97.32,1.47.02.12.04.24.07.37.08.44.16.89.23,1.33.03.2.05.4.08.6.05.38.1.76.14,1.14.03.31.05.62.07.93.02.28.05.57.06.85.03.6.05,1.21.05,1.82s-.02,1.18-.04,1.77Z"/><circle class="cls-1" cx="195.25" cy="164.25" r="15.38"/><path class="cls-1" d="m346,112c-11.05,0-20,8.95-20,20,0,2.25.39,4.41,1.08,6.43l-13.01,10.82c-2.34-18.64-8.98-35.95-18.89-50.92l27.33-22.73c3.42,2.75,7.77,4.4,12.5,4.4,11.05,0,20-8.95,20-20s-8.95-20-20-20-20,8.95-20,20c0,3.42.86,6.64,2.38,9.46l-26.85,22.34c-21.9-28.72-56.45-47.29-95.27-47.29-28.17,0-54.1,9.78-74.57,26.12l-19.14-19.14v-11.82c9.35-1.67,16.46-9.83,16.46-19.67,0-11.05-8.95-20-20-20s-20,8.95-20,20c0,9.51,6.65,17.46,15.54,19.48v15.32l21.03,21.03c-7.89,7.2-14.81,15.44-20.55,24.5l-16.33-13.38-46.91,48.22c-3.11-2-6.81-3.18-10.79-3.18-11.05,0-20,8.95-20,20s8.95,20,20,20,20-8.95,20-20c0-4.17-1.28-8.05-3.47-11.26l41.78-42.94,11.62,9.51c-9.2,16.94-14.42,36.34-14.42,56.94,0,27.83,9.54,53.47,25.53,73.83l-26.33,26.84c-3.08-1.37-6.54-2-10.13-1.63-10.99,1.12-18.99,10.93-17.88,21.92s10.93,18.99,21.92,17.88,18.99-10.93,17.88-21.92c-.23-2.3-.87-4.46-1.79-6.44l25.64-26.13c21.71,21.85,51.76,35.41,84.92,35.41,26.5,0,51.01-8.66,70.87-23.28l42.45,39.12c1.83,1.68,4.13,2.51,6.44,2.51,2.56,0,5.12-1.03,6.99-3.06,3.56-3.86,3.31-9.87-.55-13.42l-40.88-37.67c21.28-21.63,34.44-51.28,34.44-83.94,0-.06,0-.11,0-.17l19.2-15.96c3.31,2.43,7.38,3.88,11.8,3.88,11.05,0,20-8.95,20-20s-8.95-20-20-20Zm-82.78,127.9c-1.18.51-2.28,1.27-3.21,2.27-.38.41-.71.85-1,1.31-17.46,14.08-39.64,22.52-63.76,22.52-56.11,0-101.75-45.64-101.75-101.75s45.64-101.75,101.75-101.75,101.75,45.64,101.75,101.75c0,30-13.06,57.01-33.78,75.65Z"/></g></svg>